<svg width="19" height="20" viewBox="0 0 19 20" fill="none" xmlns="http://www.w3.org/2000/svg">
<path d="M13.3033 2.63574H5.20534C4.23376 2.63574 3.30197 3.0217 2.61496 3.70871C1.92795 4.39572 1.54199 5.32751 1.54199 6.29909V13.2402C1.54199 13.7212 1.63675 14.1976 1.82085 14.6421C2.00495 15.0865 2.27479 15.4904 2.61496 15.8305C3.30197 16.5175 4.23376 16.9035 5.20534 16.9035H13.3033C14.2742 16.9015 15.2048 16.5149 15.8914 15.8283C16.578 15.1417 16.9646 14.2111 16.9666 13.2402V6.29909C16.9646 5.32813 16.578 4.39753 15.8914 3.71096C15.2048 3.02439 14.2742 2.63778 13.3033 2.63574ZM10.4883 9.05238C10.1088 9.26878 9.67954 9.38258 9.24273 9.38258C8.80591 9.38258 8.37664 9.26878 7.99719 9.05238L2.71426 6.02144C2.78257 5.40855 3.07443 4.84235 3.53402 4.43114C3.9936 4.01993 4.58865 3.79259 5.20534 3.79259H13.3033C13.9195 3.79428 14.5136 4.02221 14.9728 4.4331C15.4321 4.84398 15.7244 5.40921 15.7943 6.02144L10.4883 9.05238Z" fill="#727272"/>
</svg>
