<svg width="20" height="19" viewBox="0 0 20 19" fill="none" xmlns="http://www.w3.org/2000/svg">
<path d="M8.99651 4.21548C9.32164 4.17784 9.64868 4.15904 9.97598 4.15918C13.573 4.15918 16.4543 6.39806 17.6883 9.55779C17.3895 10.3264 16.986 11.0499 16.489 11.708M5.74963 5.33068C4.17632 6.29086 2.95778 7.77857 2.26367 9.55779C3.49764 12.7175 6.37896 14.9564 9.97598 14.9564C11.4661 14.9643 12.9292 14.5585 14.2023 13.7841M8.34097 7.92279C8.1261 8.13765 7.95566 8.39273 7.83938 8.67346C7.7231 8.9542 7.66325 9.25509 7.66325 9.55895C7.66325 9.86282 7.7231 10.1637 7.83938 10.4444C7.95566 10.7252 8.1261 10.9803 8.34097 11.1951C8.55583 11.41 8.81091 11.5804 9.09165 11.6967C9.37238 11.813 9.67327 11.8728 9.97713 11.8728C10.281 11.8728 10.5819 11.813 10.8626 11.6967C11.1434 11.5804 11.3984 11.41 11.6133 11.1951" stroke="#595959" stroke-width="1.54246" stroke-linecap="round" stroke-linejoin="round"/>
<path d="M3.80566 3.3877L16.1454 15.7274" stroke="#595959" stroke-width="1.54246" stroke-linecap="round"/>
</svg>
