<svg width="19" height="19" viewBox="0 0 19 19" fill="none" xmlns="http://www.w3.org/2000/svg">
<g clip-path="url(#clip0_133_9234)">
<path d="M9.25481 13.14C8.84572 13.14 8.45339 12.9775 8.16412 12.6882C7.87485 12.3989 7.71234 12.0066 7.71234 11.5975C7.71234 10.7415 8.39874 10.0551 9.25481 10.0551C9.66389 10.0551 10.0562 10.2176 10.3455 10.5068C10.6348 10.7961 10.7973 11.1884 10.7973 11.5975C10.7973 12.0066 10.6348 12.3989 10.3455 12.6882C10.0562 12.9775 9.66389 13.14 9.25481 13.14ZM13.8822 15.4537V7.74137H4.62742V15.4537H13.8822ZM13.8822 6.19891C14.2913 6.19891 14.6836 6.36142 14.9729 6.65068C15.2621 6.93995 15.4246 7.33228 15.4246 7.74137V15.4537C15.4246 15.8628 15.2621 16.2551 14.9729 16.5444C14.6836 16.8336 14.2913 16.9961 13.8822 16.9961H4.62742C4.21834 16.9961 3.826 16.8336 3.53674 16.5444C3.24747 16.2551 3.08496 15.8628 3.08496 15.4537V7.74137C3.08496 6.8853 3.77136 6.19891 4.62742 6.19891H5.39865V4.65645C5.39865 3.63373 5.80492 2.6529 6.52809 1.92973C7.25126 1.20656 8.23209 0.800293 9.25481 0.800293C9.7612 0.800293 10.2626 0.900035 10.7305 1.09383C11.1983 1.28761 11.6234 1.57166 11.9815 1.92973C12.3396 2.28781 12.6236 2.71291 12.8174 3.18076C13.0112 3.64861 13.111 4.15005 13.111 4.65645V6.19891H13.8822ZM9.25481 2.34275C8.64118 2.34275 8.05268 2.58652 7.61878 3.02042C7.18488 3.45432 6.94111 4.04282 6.94111 4.65645V6.19891H11.5685V4.65645C11.5685 4.04282 11.3247 3.45432 10.8908 3.02042C10.4569 2.58652 9.86843 2.34275 9.25481 2.34275Z" fill="#727272"/>
</g>
<defs>
<clipPath id="clip0_133_9234">
<rect width="18.5095" height="18.5095" fill="white" transform="translate(0 0.0292969)"/>
</clipPath>
</defs>
</svg>
