<svg width="19" height="19" viewBox="0 0 19 19" fill="none" xmlns="http://www.w3.org/2000/svg">
<path fill-rule="evenodd" clip-rule="evenodd" d="M6.16963 5.3984C6.16963 4.58023 6.49465 3.79556 7.07318 3.21703C7.65172 2.63849 8.43638 2.31348 9.25455 2.31348C10.0727 2.31348 10.8574 2.63849 11.4359 3.21703C12.0145 3.79556 12.3395 4.58023 12.3395 5.3984C12.3395 6.21657 12.0145 7.00123 11.4359 7.57977C10.8574 8.1583 10.0727 8.48332 9.25455 8.48332C8.43638 8.48332 7.65172 8.1583 7.07318 7.57977C6.49465 7.00123 6.16963 6.21657 6.16963 5.3984ZM6.16963 10.0258C5.14691 10.0258 4.16609 10.4321 3.44292 11.1552C2.71975 11.8784 2.31348 12.8592 2.31348 13.8819C2.31348 14.4956 2.55724 15.0841 2.99114 15.518C3.42504 15.9519 4.01354 16.1956 4.62717 16.1956H13.8819C14.4956 16.1956 15.0841 15.9519 15.518 15.518C15.9519 15.0841 16.1956 14.4956 16.1956 13.8819C16.1956 12.8592 15.7894 11.8784 15.0662 11.1552C14.343 10.4321 13.3622 10.0258 12.3395 10.0258H6.16963Z" fill="#727272"/>
</svg>
